<?xml version="1.0" encoding="UTF-8" standalone="no"?>
<!DOCTYPE svg PUBLIC "-//W3C//DTD SVG 1.0//EN" "http://www.w3.org/TR/2001/PR-SVG-20010719/DTD/svg10.dtd">
<svg width="57cm" height="30cm" viewBox="-102 -242 1123 592" xmlns="http://www.w3.org/2000/svg" xmlns:xlink="http://www.w3.org/1999/xlink">
  <g>
    <rect style="fill: #086ca2" x="340" y="-140" width="240" height="49"/>
    <rect style="fill: none; fill-opacity:0; stroke-width: 2; stroke: #000000" x="340" y="-140" width="240" height="49"/>
    <text font-size="12.8" style="fill: #ffffff;text-anchor:middle;font-family:sans-serif;font-style:normal;font-weight:700" x="460" y="-111.6">
      <tspan x="460" y="-111.6">PlatformUI Application</tspan>
    </text>
  </g>
  <g>
    <line style="fill: none; fill-opacity:0; stroke-width: 2; stroke: #000000" x1="460" y1="-91" x2="124.32" y2="-1.15626"/>
    <polyline style="fill: none; fill-opacity:0; stroke-width: 2; stroke: #000000" points="130.527,-7.99359 122.16,-0.578128 133.113,1.6664 "/>
  </g>
  <g>
    <rect style="fill: #777777" x="0" y="0" width="240" height="49"/>
    <rect style="fill: none; fill-opacity:0; stroke-width: 2; stroke: #000000" x="0" y="0" width="240" height="49"/>
    <text font-size="12.8" style="fill: #ffffff;text-anchor:middle;font-family:sans-serif;font-style:normal;font-weight:700" x="120" y="28.4">
      <tspan x="120" y="28.4">View service 1</tspan>
    </text>
  </g>
  <text font-size="12.7998" style="fill: #000000;text-anchor:start;font-family:sans-serif;font-style:normal;font-weight:normal" x="120" y="24.5">
    <tspan x="120" y="24.5"></tspan>
  </text>
  <g>
    <rect style="fill: #777777" x="340" y="0" width="240" height="49"/>
    <rect style="fill: none; fill-opacity:0; stroke-width: 2; stroke: #000000" x="340" y="0" width="240" height="49"/>
    <text font-size="12.8" style="fill: #ffffff;text-anchor:middle;font-family:sans-serif;font-style:normal;font-weight:700" x="460" y="28.4">
      <tspan x="460" y="28.4">View service 2</tspan>
    </text>
  </g>
  <g>
    <line style="fill: none; fill-opacity:0; stroke-width: 2; stroke: #000000" x1="460" y1="-91" x2="460" y2="-4.47214"/>
    <polyline style="fill: none; fill-opacity:0; stroke-width: 2; stroke: #000000" points="455,-12.2361 460,-2.23607 465,-12.2361 "/>
  </g>
  <line style="fill: none; fill-opacity:0; stroke-width: 2; stroke: #000000" x1="460" y1="-91" x2="900" y2="0"/>
  <g>
    <rect style="fill: #777777" x="780" y="0" width="240" height="49"/>
    <rect style="fill: none; fill-opacity:0; stroke-width: 2; stroke: #000000" x="780" y="0" width="240" height="49"/>
    <text font-size="12.8016" style="fill: #ffffff;text-anchor:middle;font-family:sans-serif;font-style:normal;font-weight:700" x="900" y="28.399">
      <tspan x="900" y="28.399">View service n</tspan>
    </text>
  </g>
  <text font-size="12.7998" style="fill: #000000;text-anchor:start;font-family:sans-serif;font-style:normal;font-weight:normal" x="900" y="24.5">
    <tspan x="900" y="24.5"></tspan>
  </text>
  <text font-size="12.7998" style="fill: #000000;text-anchor:start;font-family:sans-serif;font-style:normal;font-weight:normal" x="460" y="24.5">
    <tspan x="460" y="24.5"></tspan>
  </text>
  <text font-size="12.7998" style="fill: #000000;text-anchor:start;font-family:sans-serif;font-style:normal;font-weight:normal" x="720" y="20">
    <tspan x="720" y="20"></tspan>
  </text>
  <text font-size="16.9331" style="fill: #000000;text-anchor:start;font-family:sans-serif;font-style:normal;font-weight:normal" x="200" y="-40">
    <tspan x="200" y="-40">Route 1</tspan>
  </text>
  <text font-size="12.7998" style="fill: #000000;text-anchor:start;font-family:sans-serif;font-style:normal;font-weight:normal" x="220" y="-60">
    <tspan x="220" y="-60"></tspan>
  </text>
  <text font-size="12.7998" style="fill: #000000;text-anchor:start;font-family:sans-serif;font-style:normal;font-weight:normal" x="440" y="-40">
    <tspan x="440" y="-40"></tspan>
  </text>
  <text font-size="12.7998" style="fill: #000000;text-anchor:start;font-family:sans-serif;font-style:normal;font-weight:normal" x="440" y="-40">
    <tspan x="440" y="-40"></tspan>
  </text>
  <text font-size="12.7998" style="fill: #000000;text-anchor:start;font-family:sans-serif;font-style:normal;font-weight:normal" x="420" y="-40">
    <tspan x="420" y="-40"></tspan>
  </text>
  <text font-size="16.9331" style="fill: #000000;text-anchor:start;font-family:sans-serif;font-style:normal;font-weight:normal" x="460" y="-40">
    <tspan x="460" y="-40">Route 2</tspan>
  </text>
  <text font-size="12.7998" style="fill: #000000;text-anchor:start;font-family:sans-serif;font-style:normal;font-weight:normal" x="-240" y="-60">
    <tspan x="-240" y="-60"></tspan>
  </text>
  <text font-size="12.7998" style="fill: #000000;text-anchor:start;font-family:sans-serif;font-style:normal;font-weight:normal" x="760" y="-100">
    <tspan x="760" y="-100"></tspan>
  </text>
  <text font-size="16.9331" style="fill: #000000;text-anchor:start;font-family:sans-serif;font-style:normal;font-weight:normal" x="720" y="-40">
    <tspan x="720" y="-40">Route n</tspan>
  </text>
  <text font-size="45.1549" style="fill: #aaaaaa;text-anchor:start;font-family:sans-serif;font-style:normal;font-weight:normal" x="660" y="40">
    <tspan x="660" y="40">...</tspan>
  </text>
  <text font-size="16.9331" style="fill: #000000;text-anchor:start;font-family:sans-serif;font-style:normal;font-weight:normal" x="340" y="300">
    <tspan x="340" y="300"></tspan>
  </text>
  <g>
    <rect style="fill: #ffb687" x="340" y="140" width="240" height="49"/>
    <rect style="fill: none; fill-opacity:0; stroke-width: 2; stroke: #000000" x="340" y="140" width="240" height="49"/>
    <text font-size="12.7998" style="fill: #000000;text-anchor:middle;font-family:sans-serif;font-style:normal;font-weight:normal" x="460" y="168.4">
      <tspan x="460" y="168.4">View 2</tspan>
    </text>
  </g>
  <g>
    <rect style="fill: #ffb687" x="320" y="220" width="80" height="49"/>
    <rect style="fill: none; fill-opacity:0; stroke-width: 2; stroke: #000000" x="320" y="220" width="80" height="49"/>
    <text font-size="12.7998" style="fill: #000000;text-anchor:middle;font-family:sans-serif;font-style:normal;font-weight:normal" x="360" y="248.4">
      <tspan x="360" y="248.4">Sub view</tspan>
    </text>
  </g>
  <line style="fill: none; fill-opacity:0; stroke-width: 2; stroke: #000000" x1="460" y1="189" x2="360" y2="220"/>
  <g>
    <rect style="fill: #ffb687" x="420" y="220" width="80" height="49"/>
    <rect style="fill: none; fill-opacity:0; stroke-width: 2; stroke: #000000" x="420" y="220" width="80" height="49"/>
    <text font-size="12.7998" style="fill: #000000;text-anchor:middle;font-family:sans-serif;font-style:normal;font-weight:normal" x="460" y="248.4">
      <tspan x="460" y="248.4">Sub view</tspan>
    </text>
  </g>
  <g>
    <rect style="fill: #ffb687" x="520" y="220" width="80" height="49"/>
    <rect style="fill: none; fill-opacity:0; stroke-width: 2; stroke: #000000" x="520" y="220" width="80" height="49"/>
    <text font-size="12.7998" style="fill: #000000;text-anchor:middle;font-family:sans-serif;font-style:normal;font-weight:normal" x="560" y="248.4">
      <tspan x="560" y="248.4">Sub view</tspan>
    </text>
  </g>
  <line style="fill: none; fill-opacity:0; stroke-width: 2; stroke: #000000" x1="460" y1="189" x2="460" y2="220"/>
  <line style="fill: none; fill-opacity:0; stroke-width: 2; stroke: #000000" x1="460" y1="189" x2="560" y2="220"/>
  <g>
    <rect style="fill: #ffb687" x="280" y="300" width="80" height="49"/>
    <rect style="fill: none; fill-opacity:0; stroke-width: 2; stroke: #000000" x="280" y="300" width="80" height="49"/>
    <text font-size="12.7998" style="fill: #000000;text-anchor:middle;font-family:sans-serif;font-style:normal;font-weight:normal" x="320" y="328.4">
      <tspan x="320" y="328.4">Sub view</tspan>
    </text>
  </g>
  <line style="fill: none; fill-opacity:0; stroke-width: 2; stroke: #000000" x1="360" y1="269" x2="320" y2="300"/>
  <line style="fill: none; fill-opacity:0; stroke-width: 2; stroke-dasharray: 4; stroke: #000000" x1="360" y1="269" x2="400" y2="300"/>
  <line style="fill: none; fill-opacity:0; stroke-width: 2; stroke-dasharray: 4; stroke: #000000" x1="460" y1="269" x2="460" y2="300"/>
  <line style="fill: none; fill-opacity:0; stroke-width: 2; stroke-dasharray: 4; stroke: #000000" x1="560" y1="269" x2="560" y2="300"/>
  <text font-size="45.1549" style="fill: #aaaaaa;text-anchor:start;font-family:sans-serif;font-style:normal;font-weight:normal" x="480" y="340">
    <tspan x="480" y="340">...</tspan>
  </text>
  <text font-size="12.7998" style="fill: #000000;text-anchor:start;font-family:sans-serif;font-style:normal;font-weight:normal" x="460" y="340">
    <tspan x="460" y="340"></tspan>
  </text>
  <text font-size="12.7998" style="fill: #000000;text-anchor:start;font-family:sans-serif;font-style:normal;font-weight:normal" x="460" y="164.5">
    <tspan x="460" y="164.5"></tspan>
  </text>
  <g>
    <line style="fill: none; fill-opacity:0; stroke-width: 2; stroke: #000000" x1="460" y1="49" x2="460" y2="135.528"/>
    <polyline style="fill: none; fill-opacity:0; stroke-width: 2; stroke: #000000" points="455,127.764 460,137.764 465,127.764 "/>
  </g>
  <line style="fill: none; fill-opacity:0; stroke-width: 2; stroke-dasharray: 4; stroke: #000000" x1="120" y1="49" x2="120" y2="120"/>
  <line style="fill: none; fill-opacity:0; stroke-width: 2; stroke-dasharray: 4; stroke: #000000" x1="900" y1="49" x2="900" y2="120"/>
  <text font-size="12.7998" style="fill: #000000;text-anchor:start;font-family:sans-serif;font-style:normal;font-weight:normal" x="-120" y="-60">
    <tspan x="-120" y="-60"></tspan>
  </text>
  <text font-size="45.1549" style="fill: #aaaaaa;text-anchor:start;font-family:sans-serif;font-style:normal;font-weight:normal" x="100" y="160">
    <tspan x="100" y="160">...</tspan>
  </text>
  <text font-size="45.1549" style="fill: #aaaaaa;text-anchor:start;font-family:sans-serif;font-style:normal;font-weight:normal" x="880" y="160">
    <tspan x="880" y="160">...</tspan>
  </text>
  <text font-size="12.7998" style="fill: #000000;text-anchor:start;font-family:sans-serif;font-style:normal;font-weight:normal" x="520" y="-60">
    <tspan x="520" y="-60"></tspan>
  </text>
  <text font-size="16.9331" style="fill: #000000;text-anchor:start;font-family:sans-serif;font-style:normal;font-weight:normal" x="380" y="100">
    <tspan x="380" y="100">Models</tspan>
  </text>
  <text font-size="12.7998" style="fill: #000000;text-anchor:start;font-family:sans-serif;font-style:normal;font-weight:normal" x="500" y="80">
    <tspan x="500" y="80"></tspan>
  </text>
  <text font-size="12.7998" style="fill: #000000;text-anchor:start;font-family:sans-serif;font-style:normal;font-weight:normal" x="460" y="80">
    <tspan x="460" y="80"></tspan>
  </text>
  <path style="fill: none; fill-opacity:0; stroke-width: 2; stroke: #000000" d="M 680,184.5 A 113.559,113.559 0 0 0 600,244.5"/>
  <g>
    <rect style="fill: #eeeeee" x="680" y="160" width="107.75" height="49"/>
    <rect style="fill: none; fill-opacity:0; stroke-width: 2; stroke: #000000" x="680" y="160" width="107.75" height="49"/>
    <text font-size="12.7998" style="fill: #000000;text-anchor:middle;font-family:sans-serif;font-style:normal;font-weight:normal" x="733.875" y="188.4">
      <tspan x="733.875" y="188.4">View Plugin 1</tspan>
    </text>
  </g>
  <text font-size="12.7998" style="fill: #000000;text-anchor:start;font-family:sans-serif;font-style:normal;font-weight:normal" x="100" y="-240">
    <tspan x="100" y="-240"></tspan>
  </text>
  <path style="fill: none; fill-opacity:0; stroke-width: 2; stroke: #000000" d="M 600,244.5 A 79.063,79.063 0 0 0 680,284.5"/>
  <g>
    <rect style="fill: #eeeeee" x="680" y="260" width="107.7" height="49"/>
    <rect style="fill: none; fill-opacity:0; stroke-width: 2; stroke: #000000" x="680" y="260" width="107.7" height="49"/>
    <text font-size="12.7998" style="fill: #000000;text-anchor:middle;font-family:sans-serif;font-style:normal;font-weight:normal" x="733.85" y="288.4">
      <tspan x="733.85" y="288.4">View Plugin n</tspan>
    </text>
  </g>
  <text font-size="12.7998" style="fill: #000000;text-anchor:start;font-family:sans-serif;font-style:normal;font-weight:normal" x="733.85" y="284.5">
    <tspan x="733.85" y="284.5"></tspan>
  </text>
  <text font-size="45.1549" style="fill: #aaaaaa;text-anchor:start;font-family:sans-serif;font-style:normal;font-weight:normal" x="720" y="240">
    <tspan x="720" y="240">...</tspan>
  </text>
  <path style="fill: none; fill-opacity:0; stroke-width: 2; stroke: #000000" d="M -37.6,-71 A 259.834,259.834 0 0 0 60,-3.55271e-14"/>
  <g>
    <rect style="fill: #eeeeee" x="-100" y="-120" width="124.8" height="49"/>
    <rect style="fill: none; fill-opacity:0; stroke-width: 2; stroke: #000000" x="-100" y="-120" width="124.8" height="49"/>
    <text font-size="12.7998" style="fill: #000000;text-anchor:middle;font-family:sans-serif;font-style:normal;font-weight:normal" x="-37.6" y="-91.6">
      <tspan x="-37.6" y="-91.6">Service Plugin 1</tspan>
    </text>
  </g>
  <text font-size="12.7998" style="fill: #000000;text-anchor:start;font-family:sans-serif;font-style:normal;font-weight:normal" x="-320" y="-120">
    <tspan x="-320" y="-120"></tspan>
  </text>
  <path style="fill: none; fill-opacity:0; stroke-width: 2; stroke: #000000" d="M 60,3.55271e-14 A 223.088,223.088 0 0 0 162.375,-71"/>
  <g>
    <rect style="fill: #eeeeee" x="100" y="-120" width="124.75" height="49"/>
    <rect style="fill: none; fill-opacity:0; stroke-width: 2; stroke: #000000" x="100" y="-120" width="124.75" height="49"/>
    <text font-size="12.7998" style="fill: #000000;text-anchor:middle;font-family:sans-serif;font-style:normal;font-weight:normal" x="162.375" y="-91.6">
      <tspan x="162.375" y="-91.6">Service Plugin n</tspan>
    </text>
  </g>
  <text font-size="12.7998" style="fill: #000000;text-anchor:start;font-family:sans-serif;font-style:normal;font-weight:normal" x="162.375" y="-95.5">
    <tspan x="162.375" y="-95.5"></tspan>
  </text>
  <text font-size="45.1549" style="fill: #aaaaaa;text-anchor:start;font-family:sans-serif;font-style:normal;font-weight:normal" x="40" y="-80">
    <tspan x="40" y="-80">...</tspan>
  </text>
  <text font-size="12.7998" style="fill: #000000;text-anchor:start;font-family:sans-serif;font-style:normal;font-weight:normal" x="-37.6" y="-95.5">
    <tspan x="-37.6" y="-95.5"></tspan>
  </text>
  <text font-size="12.7998" style="fill: #000000;text-anchor:start;font-family:sans-serif;font-style:normal;font-weight:normal" x="162.375" y="-95.5">
    <tspan x="162.375" y="-95.5"></tspan>
  </text>
  <text font-size="12.7998" style="fill: #000000;text-anchor:start;font-family:sans-serif;font-style:normal;font-weight:normal" x="733.875" y="184.5">
    <tspan x="733.875" y="184.5"></tspan>
  </text>
  <text font-size="12.7998" style="fill: #000000;text-anchor:start;font-family:sans-serif;font-style:normal;font-weight:normal" x="740" y="300">
    <tspan x="740" y="300"></tspan>
  </text>
  <text font-size="12.7998" style="fill: #000000;text-anchor:start;font-family:sans-serif;font-style:normal;font-weight:normal" x="860" y="-220">
    <tspan x="860" y="-220"></tspan>
  </text>
  <text font-size="12.7998" style="fill: #000000;text-anchor:start;font-family:sans-serif;font-style:normal;font-weight:normal" x="520" y="-220">
    <tspan x="520" y="-220"></tspan>
  </text>
  <path style="fill: none; fill-opacity:0; stroke-width: 2; stroke: #000000" d="M 680,-215.5 A 152.97,152.97 0 0 0 580,-115.5"/>
  <g>
    <rect style="fill: #eeeeee" x="680" y="-240" width="124.8" height="49"/>
    <rect style="fill: none; fill-opacity:0; stroke-width: 2; stroke: #000000" x="680" y="-240" width="124.8" height="49"/>
    <text font-size="12.7998" style="fill: #000000;text-anchor:middle;font-family:sans-serif;font-style:normal;font-weight:normal" x="742.4" y="-211.6">
      <tspan x="742.4" y="-211.6">App Plugin 1</tspan>
    </text>
  </g>
  <path style="fill: none; fill-opacity:0; stroke-width: 2; stroke: #000000" d="M 580,-115.5 A 145.305,145.305 0 0 0 680,-115.5"/>
  <g>
    <rect style="fill: #eeeeee" x="680" y="-140" width="124.75" height="49"/>
    <rect style="fill: none; fill-opacity:0; stroke-width: 2; stroke: #000000" x="680" y="-140" width="124.75" height="49"/>
    <text font-size="12.7998" style="fill: #000000;text-anchor:middle;font-family:sans-serif;font-style:normal;font-weight:normal" x="742.375" y="-111.6">
      <tspan x="742.375" y="-111.6">App Plugin n</tspan>
    </text>
  </g>
  <text font-size="12.7998" style="fill: #000000;text-anchor:start;font-family:sans-serif;font-style:normal;font-weight:normal" x="742.375" y="-115.5">
    <tspan x="742.375" y="-115.5"></tspan>
  </text>
  <text font-size="45.1549" style="fill: #aaaaaa;text-anchor:start;font-family:sans-serif;font-style:normal;font-weight:normal" x="720" y="-160">
    <tspan x="720" y="-160">...</tspan>
  </text>
  <text font-size="12.7998" style="fill: #000000;text-anchor:start;font-family:sans-serif;font-style:normal;font-weight:normal" x="742.4" y="-215.5">
    <tspan x="742.4" y="-215.5"></tspan>
  </text>
  <text font-size="12.7998" style="fill: #000000;text-anchor:start;font-family:sans-serif;font-style:normal;font-weight:normal" x="742.375" y="-115.5">
    <tspan x="742.375" y="-115.5"></tspan>
  </text>
  <text font-size="12.7998" style="fill: #000000;text-anchor:start;font-family:sans-serif;font-style:normal;font-weight:normal" x="742.4" y="-215.5">
    <tspan x="742.4" y="-215.5"></tspan>
  </text>
  <text font-size="12.7998" style="fill: #000000;text-anchor:start;font-family:sans-serif;font-style:normal;font-weight:normal" x="742.375" y="-115.5">
    <tspan x="742.375" y="-115.5"></tspan>
  </text>
</svg>
